<svg xmlns="http://www.w3.org/2000/svg" viewBox="949 1281 72.423 72.423">
  <defs>
    <style>
      .cls-1 {
        fill: #fff;
      }

      .cls-2 {
        fill: #ffcc29;
      }
    </style>
  </defs>
  <g id="Atraveﾌ《_da_Muﾌ《ica_Assets-10" data-name="Atraveﾌ《 da Muﾌ《ica_Assets-10" transform="translate(948.4 1279.2)">
    <g id="Group_29" data-name="Group 29" transform="translate(0.6 1.8)">
      <g id="Group_27" data-name="Group 27">
        <circle id="Ellipse_5" data-name="Ellipse 5" class="cls-1" cx="36.212" cy="36.212" r="36.212"/>
      </g>
      <g id="Group_28" data-name="Group 28" transform="translate(15.256 15.926)">
        <path id="Path_31" data-name="Path 31" class="cls-2" d="M30.656,15.156c5.532,0,6.2,0,8.55.168a20.843,20.843,0,0,1,3.856.671A5.684,5.684,0,0,1,45.409,17.5a7.032,7.032,0,0,1,1.509,2.347,8.7,8.7,0,0,1,.671,3.856c.168,2.179.168,2.85.168,8.55,0,5.532,0,6.2-.168,8.55a20.843,20.843,0,0,1-.671,3.856,5.684,5.684,0,0,1-1.509,2.347,7.032,7.032,0,0,1-2.347,1.509,8.7,8.7,0,0,1-3.856.671c-2.179.168-2.85.168-8.55.168-5.532,0-6.2,0-8.55-.168a20.843,20.843,0,0,1-3.856-.671A5.684,5.684,0,0,1,15.9,47.009a7.032,7.032,0,0,1-1.509-2.347,8.7,8.7,0,0,1-.671-3.856c-.168-2.179-.168-2.85-.168-8.55,0-5.532,0-6.2.168-8.55a20.843,20.843,0,0,1,.671-3.856A5.684,5.684,0,0,1,15.9,17.5a7.032,7.032,0,0,1,2.347-1.509,8.7,8.7,0,0,1,3.856-.671c2.347-.168,3.018-.168,8.55-.168m0-3.856c-5.7,0-6.371,0-8.718.168a17.658,17.658,0,0,0-5.029,1.006,10.076,10.076,0,0,0-6.035,6.035,17.658,17.658,0,0,0-1.006,5.029C9.7,25.718,9.7,26.556,9.7,32.256s0,6.371.168,8.718A17.658,17.658,0,0,0,10.874,46a10.076,10.076,0,0,0,6.035,6.035,17.658,17.658,0,0,0,5.029,1.006c2.179.168,3.018.168,8.718.168s6.371,0,8.718-.168A17.658,17.658,0,0,0,44.4,52.038,10.076,10.076,0,0,0,50.438,46a17.658,17.658,0,0,0,1.006-5.029c.168-2.179.168-3.018.168-8.718s0-6.371-.168-8.718a17.658,17.658,0,0,0-1.006-5.029A10.076,10.076,0,0,0,44.4,12.474a17.658,17.658,0,0,0-5.029-1.006c-2.347-.168-3.018-.168-8.718-.168" transform="translate(-9.7 -11.3)"/>
        <path id="Path_32" data-name="Path 32" class="cls-2" d="M26.529,17.4a10.921,10.921,0,0,0-9.9,6.63,10.182,10.182,0,0,0-.829,4.1A10.729,10.729,0,1,0,26.529,17.4m0,17.77a7.041,7.041,0,1,1,7.041-7.041,7.084,7.084,0,0,1-7.041,7.041" transform="translate(-5.574 -7.174)"/>
        <path id="Path_33" data-name="Path 33" class="cls-2" d="M32.429,18.115A2.515,2.515,0,1,1,29.915,15.6a2.578,2.578,0,0,1,2.515,2.515" transform="translate(2.273 -8.391)"/>
      </g>
    </g>
  </g>
</svg>
